<svg xmlns="http://www.w3.org/2000/svg" viewBox="0 0 1200 740" width="1200" height="740" role="img" aria-labelledby="t d" font-family="IBM Plex Sans, Helvetica Neue, Arial, sans-serif">
  <title id="t">Caminho de um alerta no Ember</title>
  <desc id="d">1 alertas.py grava alertas.json. 2 notificar.py manda ao ntfy um push sem valor nem nome, com botões. 3 o ntfy entrega no celular. 4 você toca num botão. Caminho A, ntfy.sh público: 5A o botão posta no tópico de resposta um corpo assinado com HMAC, 6A na rodada seguinte notificar.py lê o tópico de resposta, 7A confere a assinatura e grava o estado. Caminho B, ntfy próprio: 5B o botão chama o webhook do agendador.py com o token no cabeçalho, 6B o agendador valida e grava o estado sob trava; token errado recebe 403 e o IP é bloqueado após 5 erros.</desc>
  <defs>
    <marker id="seta" viewBox="0 0 10 10" refX="9" refY="5" markerWidth="7" markerHeight="7" orient="auto-start-reverse">
      <path d="M0,0 L10,5 L0,10 z" fill="#1F4E8C"/>
    </marker>
    <marker id="seta-cinza" viewBox="0 0 10 10" refX="9" refY="5" markerWidth="7" markerHeight="7" orient="auto-start-reverse">
      <path d="M0,0 L10,5 L0,10 z" fill="#454B55"/>
    </marker>
    <symbol id="banco" viewBox="0 0 48 48">
      <path d="M5 17 L24 6 L43 17 Z" fill="#C4D7EE" stroke="#1F4E8C" stroke-width="2.5" stroke-linejoin="round"/>
      <path d="M12 21 V36 M20 21 V36 M28 21 V36 M36 21 V36" stroke="#1F4E8C" stroke-width="3"/>
      <rect x="6" y="38" width="36" height="4" fill="#1F4E8C"/>
    </symbol>
    <symbol id="nuvem" viewBox="0 0 48 48">
      <path d="M14 36 H35 A8 8 0 0 0 36 20 A11 11 0 0 0 15 18 A9 9 0 0 0 14 36 Z" fill="#C4D7EE" stroke="#1F4E8C" stroke-width="2.5" stroke-linejoin="round"/>
    </symbol>
    <symbol id="celular" viewBox="0 0 48 64">
      <rect x="8" y="3" width="32" height="58" rx="4" fill="#FFFFFF" stroke="#1F4E8C" stroke-width="2.5"/>
      <rect x="12" y="10" width="24" height="40" fill="#C4D7EE"/>
      <path d="M20 55 H28" stroke="#1F4E8C" stroke-width="2.5" stroke-linecap="round"/>
    </symbol>
    <symbol id="cilindro" viewBox="0 0 48 48">
      <path d="M8 10 V38 A16 5 0 0 0 40 38 V10" fill="#C4D7EE" stroke="#1F4E8C" stroke-width="2.5"/>
      <ellipse cx="24" cy="10" rx="16" ry="5" fill="#FFFFFF" stroke="#1F4E8C" stroke-width="2.5"/>
      <path d="M8 24 A16 5 0 0 0 40 24" fill="none" stroke="#1F4E8C" stroke-width="2"/>
    </symbol>
    <symbol id="terminal" viewBox="0 0 48 48">
      <rect x="4" y="8" width="40" height="32" rx="4" fill="#FFFFFF" stroke="#1F4E8C" stroke-width="2.5"/>
      <path d="M4 15 H44" stroke="#1F4E8C" stroke-width="2"/>
      <path d="M11 23 L17 28 L11 33 M21 33 H30" fill="none" stroke="#1F4E8C" stroke-width="2.5" stroke-linecap="round" stroke-linejoin="round"/>
    </symbol>
    <symbol id="filtro" viewBox="0 0 48 48">
      <path d="M6 8 H42 L28 26 V40 L20 36 V26 Z" fill="#C4D7EE" stroke="#1F4E8C" stroke-width="2.5" stroke-linejoin="round"/>
    </symbol>
    <symbol id="sino" viewBox="0 0 48 48">
      <path d="M12 34 V22 A12 12 0 0 1 36 22 V34 L40 38 H8 Z" fill="#C4D7EE" stroke="#1F4E8C" stroke-width="2.5" stroke-linejoin="round"/>
      <path d="M20 42 A4 4 0 0 0 28 42" fill="none" stroke="#1F4E8C" stroke-width="2.5"/>
    </symbol>
    <symbol id="grafico" viewBox="0 0 48 48">
      <rect x="4" y="6" width="40" height="36" rx="4" fill="#FFFFFF" stroke="#1F4E8C" stroke-width="2.5"/>
      <rect x="11" y="26" width="6" height="10" fill="#86AEDB"/>
      <rect x="21" y="18" width="6" height="18" fill="#3F78BD"/>
      <rect x="31" y="22" width="6" height="14" fill="#1F4E8C"/>
    </symbol>
    <symbol id="cadeado" viewBox="0 0 48 48">
      <path d="M15 22 V15 A9 9 0 0 1 33 15 V22" fill="none" stroke="#1F4E8C" stroke-width="3"/>
      <rect x="10" y="22" width="28" height="20" rx="3" fill="#C4D7EE" stroke="#1F4E8C" stroke-width="2.5"/>
      <circle cx="24" cy="31" r="3" fill="#1F4E8C"/>
    </symbol>
    <symbol id="servidor" viewBox="0 0 48 48">
      <rect x="6" y="6" width="36" height="16" rx="2" fill="#FFFFFF" stroke="#1F4E8C" stroke-width="2.5"/>
      <rect x="6" y="26" width="36" height="16" rx="2" fill="#FFFFFF" stroke="#1F4E8C" stroke-width="2.5"/>
      <circle cx="13" cy="14" r="2" fill="#1F4E8C"/><circle cx="13" cy="34" r="2" fill="#1F4E8C"/>
      <path d="M22 14 H36 M22 34 H36" stroke="#86AEDB" stroke-width="2.5"/>
    </symbol>
    <symbol id="engrenagem" viewBox="0 0 48 48">
      <path d="M24 6 L28 10 L34 8 L35 14 L41 16 L39 22 L43 26 L38 30 L39 36 L33 36 L30 42 L24 39 L18 42 L15 36 L9 36 L10 30 L5 26 L9 22 L7 16 L13 14 L14 8 L20 10 Z" fill="#C4D7EE" stroke="#1F4E8C" stroke-width="2" stroke-linejoin="round"/>
      <circle cx="24" cy="24" r="6" fill="#FFFFFF" stroke="#1F4E8C" stroke-width="2.5"/>
    </symbol>
  
    <marker id="seta-vermelha" viewBox="0 0 10 10" refX="9" refY="5" markerWidth="7" markerHeight="7" orient="auto-start-reverse">
      <path d="M0,0 L10,5 L0,10 z" fill="#B23A3A"/>
    </marker>
    <marker id="seta-verde" viewBox="0 0 10 10" refX="9" refY="5" markerWidth="7" markerHeight="7" orient="auto-start-reverse">
      <path d="M0,0 L10,5 L0,10 z" fill="#2F7D5A"/>
    </marker>
    <symbol id="relogio" viewBox="0 0 48 48">
      <circle cx="24" cy="24" r="17" fill="#C4D7EE" stroke="#1F4E8C" stroke-width="2.5"/>
      <path d="M24 13 V24 L31 29" fill="none" stroke="#1F4E8C" stroke-width="2.5" stroke-linecap="round"/>
    </symbol>
    <symbol id="documento" viewBox="0 0 48 48">
      <path d="M11 5 H30 L38 13 V43 H11 Z" fill="#FFFFFF" stroke="#1F4E8C" stroke-width="2.5" stroke-linejoin="round"/>
      <path d="M30 5 V13 H38" fill="none" stroke="#1F4E8C" stroke-width="2"/>
      <path d="M17 22 H32 M17 29 H32 M17 36 H27" stroke="#86AEDB" stroke-width="2.5"/>
    </symbol>
    <symbol id="chave" viewBox="0 0 48 48">
      <circle cx="15" cy="24" r="8" fill="#C4D7EE" stroke="#1F4E8C" stroke-width="2.5"/>
      <path d="M23 24 H42 M36 24 V31 M42 24 V30" fill="none" stroke="#1F4E8C" stroke-width="2.5" stroke-linecap="round"/>
    </symbol>
    <symbol id="bloqueio" viewBox="0 0 48 48">
      <circle cx="24" cy="24" r="16" fill="#FFFFFF" stroke="#B23A3A" stroke-width="3"/>
      <path d="M13 13 L35 35" stroke="#B23A3A" stroke-width="3"/>
    </symbol>
    <symbol id="dedo" viewBox="0 0 48 48">
      <rect x="10" y="10" width="28" height="18" rx="4" fill="#C4D7EE" stroke="#1F4E8C" stroke-width="2.5"/>
      <path d="M24 34 V20" stroke="#1F4E8C" stroke-width="3" stroke-linecap="round"/>
      <circle cx="24" cy="38" r="4" fill="#1F4E8C"/>
    </symbol>
    <symbol id="tunel" viewBox="0 0 48 48">
      <circle cx="12" cy="24" r="6" fill="#C4D7EE" stroke="#1F4E8C" stroke-width="2.5"/>
      <circle cx="36" cy="24" r="6" fill="#C4D7EE" stroke="#1F4E8C" stroke-width="2.5"/>
      <path d="M18 24 H30" stroke="#1F4E8C" stroke-width="2.5" stroke-dasharray="3 3"/>
      <path d="M12 12 V6 M36 12 V6 M12 42 V36 M36 42 V36" stroke="#86AEDB" stroke-width="2.5"/>
    </symbol>
  </defs>
  <rect x="1" y="1" width="1198" height="738" fill="#FFFFFF" stroke="#DDE1E7" stroke-width="2"/>
  <text x="32" y="46" font-size="21" font-weight="700" fill="#12151A">Caminho de um alerta até o seu toque</text>
  <text x="32" y="70" font-size="14" fill="#454B55">o push só diz o tipo e o nível; o detalhe fica no painel</text>
  <rect x="15" y="96" width="170" height="72" rx="4" fill="#FFFFFF" stroke="#1F4E8C" stroke-width="1.5"/>
  <use href="#sino" x="23" y="110" width="40" height="40"/>
  <text x="70" y="126" font-size="14" font-weight="600" fill="#12151A" text-anchor="start">alertas.py</text>
  <text x="70" y="146" font-size="12" font-weight="400" fill="#454B55" text-anchor="start">gera</text>
  <path d="M100 168 V720" stroke="#DDE1E7" stroke-width="2" stroke-dasharray="4 4"/>
  <rect x="215" y="96" width="170" height="72" rx="4" fill="#FFFFFF" stroke="#1F4E8C" stroke-width="1.5"/>
  <use href="#terminal" x="223" y="110" width="40" height="40"/>
  <text x="270" y="126" font-size="14" font-weight="600" fill="#12151A" text-anchor="start">notificar.py</text>
  <text x="270" y="146" font-size="12" font-weight="400" fill="#454B55" text-anchor="start">envia e lê</text>
  <path d="M300 168 V720" stroke="#DDE1E7" stroke-width="2" stroke-dasharray="4 4"/>
  <rect x="415" y="96" width="170" height="72" rx="4" fill="#FFFFFF" stroke="#1F4E8C" stroke-width="1.5"/>
  <use href="#documento" x="423" y="110" width="40" height="40"/>
  <text x="470" y="126" font-size="14" font-weight="600" fill="#12151A" text-anchor="start">estado</text>
  <text x="470" y="146" font-size="12" font-weight="400" fill="#454B55" text-anchor="start">alertas_estado.json</text>
  <path d="M500 168 V720" stroke="#DDE1E7" stroke-width="2" stroke-dasharray="4 4"/>
  <rect x="615" y="96" width="170" height="72" rx="4" fill="#FFFFFF" stroke="#1F4E8C" stroke-width="1.5"/>
  <use href="#nuvem" x="623" y="110" width="40" height="40"/>
  <text x="670" y="126" font-size="14" font-weight="600" fill="#12151A" text-anchor="start">ntfy</text>
  <text x="670" y="146" font-size="12" font-weight="400" fill="#454B55" text-anchor="start">ntfy.sh ou próprio</text>
  <path d="M700 168 V720" stroke="#DDE1E7" stroke-width="2" stroke-dasharray="4 4"/>
  <rect x="805" y="96" width="170" height="72" rx="4" fill="#FFFFFF" stroke="#1F4E8C" stroke-width="1.5"/>
  <use href="#celular" x="815" y="106" width="36" height="48"/>
  <text x="860" y="126" font-size="14" font-weight="600" fill="#12151A" text-anchor="start">Celular</text>
  <text x="860" y="146" font-size="12" font-weight="400" fill="#454B55" text-anchor="start">app do ntfy</text>
  <path d="M890 168 V720" stroke="#DDE1E7" stroke-width="2" stroke-dasharray="4 4"/>
  <rect x="1000" y="96" width="170" height="72" rx="4" fill="#FFFFFF" stroke="#1F4E8C" stroke-width="1.5"/>
  <use href="#servidor" x="1008" y="110" width="40" height="40"/>
  <text x="1055" y="126" font-size="14" font-weight="600" fill="#12151A" text-anchor="start">Webhook</text>
  <text x="1055" y="146" font-size="12" font-weight="400" fill="#454B55" text-anchor="start">agendador.py</text>
  <path d="M1085 168 V720" stroke="#DDE1E7" stroke-width="2" stroke-dasharray="4 4"/>
  <path d="M100 212 H294" stroke="#1F4E8C" stroke-width="2" fill="none" marker-end="url(#seta)"/>
  <circle cx="126" cy="212" r="11" fill="#1F4E8C" stroke="#FFFFFF" stroke-width="2"/><text x="126" y="216" font-size="12" font-weight="700" fill="#FFFFFF" text-anchor="middle">1</text>
  <text x="144" y="202" font-size="13" font-weight="400" fill="#454B55" text-anchor="start">alertas.json</text>
  <path d="M300 262 H694" stroke="#1F4E8C" stroke-width="2" fill="none" marker-end="url(#seta)"/>
  <circle cx="326" cy="262" r="11" fill="#1F4E8C" stroke="#FFFFFF" stroke-width="2"/><text x="326" y="266" font-size="12" font-weight="700" fill="#FFFFFF" text-anchor="middle">2</text>
  <text x="344" y="252" font-size="13" font-weight="400" fill="#454B55" text-anchor="start">push sem valor, com botões</text>
  <path d="M700 312 H884" stroke="#1F4E8C" stroke-width="2" fill="none" marker-end="url(#seta)"/>
  <circle cx="726" cy="312" r="11" fill="#1F4E8C" stroke="#FFFFFF" stroke-width="2"/><text x="726" y="316" font-size="12" font-weight="700" fill="#FFFFFF" text-anchor="middle">3</text>
  <text x="744" y="302" font-size="13" font-weight="400" fill="#454B55" text-anchor="start">notificação</text>
  <rect x="820" y="336" width="140" height="40" rx="4" fill="#C4D7EE" stroke="#1F4E8C" stroke-width="1.5"/>
  <circle cx="840" cy="356" r="11" fill="#1F4E8C" stroke="#FFFFFF" stroke-width="2"/><text x="840" y="360" font-size="12" font-weight="700" fill="#FFFFFF" text-anchor="middle">4</text>
  <text x="860" y="361" font-size="14" font-weight="600" fill="#12151A" text-anchor="start">você toca</text>
  <rect x="24" y="392" width="1152" height="150" fill="none" stroke="#DDE1E7" stroke-width="1.5"/>
  <text x="36" y="412" font-size="13" font-weight="600" fill="#454B55" letter-spacing="0.5">A: NTFY.SH PÚBLICO, SEM WEBHOOK</text>
  <path d="M890 440 H706" stroke="#1F4E8C" stroke-width="2" fill="none" marker-end="url(#seta)"/>
  <circle cx="864" cy="440" r="11" fill="#1F4E8C" stroke="#FFFFFF" stroke-width="2"/><text x="864" y="444" font-size="12" font-weight="700" fill="#FFFFFF" text-anchor="middle">5A</text>
  <text x="846" y="430" font-size="13" font-weight="400" fill="#454B55" text-anchor="end">corpo assinado (HMAC)</text>
  <path d="M300 482 H694" stroke="#1F4E8C" stroke-width="2" fill="none" marker-end="url(#seta)"/>
  <circle cx="326" cy="482" r="11" fill="#1F4E8C" stroke="#FFFFFF" stroke-width="2"/><text x="326" y="486" font-size="12" font-weight="700" fill="#FFFFFF" text-anchor="middle">6A</text>
  <text x="344" y="472" font-size="13" font-weight="400" fill="#454B55" text-anchor="start">próxima rodada: lê respostas</text>
  <path d="M300 524 H494" stroke="#1F4E8C" stroke-width="2" fill="none" marker-end="url(#seta)"/>
  <circle cx="326" cy="524" r="11" fill="#1F4E8C" stroke="#FFFFFF" stroke-width="2"/><text x="326" y="528" font-size="12" font-weight="700" fill="#FFFFFF" text-anchor="middle">7A</text>
  <text x="344" y="514" font-size="13" font-weight="400" fill="#454B55" text-anchor="start">confere e grava</text>
  <text x="610" y="529" font-size="13" font-weight="600" fill="#B23A3A" text-anchor="start">assinatura errada: ignorada</text>
  <rect x="24" y="562" width="1152" height="150" fill="none" stroke="#86AEDB" stroke-width="1.5" stroke-dasharray="6 4"/>
  <text x="36" y="582" font-size="13" font-weight="600" fill="#454B55" letter-spacing="0.5">B: NTFY PRÓPRIO, COM WEBHOOK</text>
  <path d="M890 612 H1079" stroke="#1F4E8C" stroke-width="2" fill="none" marker-end="url(#seta)"/>
  <circle cx="916" cy="612" r="11" fill="#1F4E8C" stroke="#FFFFFF" stroke-width="2"/><text x="916" y="616" font-size="12" font-weight="700" fill="#FFFFFF" text-anchor="middle">5B</text>
  <text x="934" y="602" font-size="13" font-weight="400" fill="#454B55" text-anchor="start">POST com token</text>
  <path d="M1085 664 H506" stroke="#1F4E8C" stroke-width="2" fill="none" marker-end="url(#seta)"/>
  <circle cx="1059" cy="664" r="11" fill="#1F4E8C" stroke="#FFFFFF" stroke-width="2"/><text x="1059" y="668" font-size="12" font-weight="700" fill="#FFFFFF" text-anchor="middle">6B</text>
  <text x="1041" y="654" font-size="13" font-weight="400" fill="#454B55" text-anchor="end">valida e grava, sob trava</text>
  <text x="1075" y="700" font-size="13" font-weight="600" fill="#B23A3A" text-anchor="end">token errado: 403; 5 erros: bloqueio</text>
</svg>
